<svg width="77" height="76" viewBox="0 0 77 76" fill="none" xmlns="http://www.w3.org/2000/svg">
<g clip-path="url(#clip0_1_230)">
<path opacity="0.06" d="M55.4036 0.265625H21.6277C10.08 0.265625 0.71875 9.62687 0.71875 21.1745V54.9505C0.71875 66.4981 10.08 75.8594 21.6277 75.8594H55.4036C66.9513 75.8594 76.3125 66.4981 76.3125 54.9505V21.1745C76.3125 9.62687 66.9513 0.265625 55.4036 0.265625Z" fill="#0089FF"/>
<path d="M38.5158 63.8031C52.7318 63.8031 64.2562 52.2787 64.2562 38.0627C64.2562 23.8466 52.7318 12.3223 38.5158 12.3223C24.2997 12.3223 12.7754 23.8466 12.7754 38.0627C12.7754 52.2787 24.2997 63.8031 38.5158 63.8031Z" fill="#1B76FF"/>
<path fill-rule="evenodd" clip-rule="evenodd" d="M25.1057 32.9688H29.7515V51.1299H25.1057C24.4062 51.1299 23.8391 50.5898 23.8391 49.9236V34.175C23.8391 33.5088 24.4062 32.9688 25.1057 32.9688Z" stroke="white" stroke-width="1.60838" stroke-linecap="round" stroke-linejoin="round"/>
<path fill-rule="evenodd" clip-rule="evenodd" d="M51.7795 47.7298C51.4854 49.9933 49.9731 51.13 47.2846 51.13H33.217C31.3057 51.13 29.7515 49.6671 29.7515 47.8682V32.9906C34.2127 32.5557 36.4433 30.9983 36.4433 26.8105V24.8037C36.4433 22.6884 38.2438 20.9736 40.4648 20.9736C41.3112 20.9736 42.136 21.2279 42.8218 21.7004C43.7669 22.3527 44.3692 23.5883 44.3692 25.3674V31.1766C44.3692 31.6708 45.2057 32.076 46.0422 32.076H50.5297C52.4201 32.076 53.9534 33.4994 53.9953 35.2687C54.0234 36.4482 53.2848 40.0993 51.7795 47.7298Z" stroke="white" stroke-width="1.60838" stroke-linecap="round" stroke-linejoin="round"/>
</g>
<defs>
<clipPath id="clip0_1_230">
<rect width="75.5938" height="75.5938" fill="white" transform="translate(0.71875 0.265625)"/>
</clipPath>
</defs>
</svg>
